<svg height="480pt" viewBox="0 -15 480.03846 480" width="480pt" xmlns="http://www.w3.org/2000/svg"><path d="m288.039062 160.019531c0 35.347657-28.65625 64-64 64-35.347656 0-64-28.652343-64-64-.039062-12.988281 3.925782-25.671875 11.359376-36.320312 11.597656-16.910157 30.621093-27.210938 51.121093-27.679688h1.519531c2.699219-.003906 5.398438.15625 8.078126.480469 3.496093 9.34375 12.425781 15.53125 22.402343 15.519531h11.839844c13.800781 12.132813 21.703125 29.625 21.679687 48zm0 0" fill="#ffd422"/><path d="m106.519531 419.378906-16.722656 6.082032-43.4375 15.839843-38.320313-105.28125 43.4375-15.839843 16.722657-6.082032zm0 0" fill="#5aaae7"/><path d="m163.878906 389.9375 5.519532 15.042969-60.160157 21.917969-2.71875-7.519532-38.320312-105.28125-2.722657-7.519531 60.082032-21.839844 5.519531 15.039063zm0 0" fill="#1e81ce"/><path d="m472.039062 8.019531v128h-48v-128zm0 0" fill="#3d9ae2"/><path d="m318.917969 316.5 57.519531-20.878906c5.960938-2.238282 12.578125-1.949219 18.320312.796875 8.757813 4.117187 14.183594 13.09375 13.765626 22.761719-.421876 9.664062-6.605469 18.136718-15.683594 21.480468l-142.800782 52-22.5625 8.238282-48.558593-16.398438-15.039063 5.4375-32.800781-90.160156 59.761719-21.757813 18.636718 3.28125 90.082032 15.917969c8.453125 1.488281 15.46875 7.375 18.398437 15.441406.441407 1.246094.765625 2.53125.960938 3.839844zm0 0" fill="#ffdaaa"/><path d="m424.039062 32.019531v80h-17.519531c0 17.679688-24 32-48 32s-48-14.320312-48-32h-56c-9.976562.011719-18.90625-6.175781-22.402343-15.519531-2.679688-.324219-5.378907-.484375-8.078126-.480469h-1.519531c-20.5.46875-39.523437 10.769531-51.121093 27.679688-3.25-1.804688-6-4.386719-8-7.519531-5.585938-9.417969-3.964844-21.441407 3.921874-29.039063l65.117188-65.042969c8.980469-9.023437 21.191406-14.09375 33.921875-14.078125h84.160156l56 24zm0 0" fill="#ffdaaa"/><path d="m408.039062 32.019531h16v80h-16zm0 0" fill="#f1cfa2"/><path d="m106.519531 419.378906-16.722656 6.082032-37.597656-103.363282-.722657-1.917968 16.722657-6.082032zm0 0" fill="#3d9ae2"/><path d="m472.039062.0195312h-48c-4.417968 0-8 3.5820308-8 7.9999998v16h-7.878906l-54.523437-23.351562c-.984375-.425781-2.046875-.6484378-3.117188-.6484378h-84.160156c-14.84375.0234376-29.074219 5.9257808-39.578125 16.4140628l-65.144531 65.050781c-10.566407 10.28125-12.621094 26.503906-4.949219 39.09375 1.246094 1.835937 2.671875 3.542969 4.261719 5.089844-5.828125 10.511719-8.890625 22.332031-8.910157 34.351562-.074218 30.890625 19.566407 58.386719 48.8125 68.335938 29.246094 9.945312 61.578126.128906 80.355469-24.398438 18.777344-24.527343 19.820313-58.300781 2.582031-83.9375h19.867188c5.71875 19.199219 31.445312 32 54.820312 32 23.378907 0 49.105469-12.800781 54.832032-32h2.730468v16c0 4.417969 3.582032 8 8 8h48c4.417969 0 8-3.582031 8-8v-128c0-4.417969-3.582031-7.9999998-8-7.9999998zm-192 159.9999998c0 30.925781-25.074218 56-56 56-30.929687 0-56-25.074219-56-56-.035156-11.371093 3.445313-22.472656 9.960938-31.792969 10.109375-14.730468 26.660156-23.730468 44.519531-24.207031h1.519531c1 0 1.976563.128907 2.976563.175781 5.59375 9.878907 16.109375 15.9375 27.460937 15.824219h8.632813c10.808594 10.503907 16.910156 24.929688 16.929687 40zm126.4375-56c-4.417968 0-8 3.582031-8 8 0 12.113281-19.804687 24-40 24-20.191406 0-40-11.886719-40-24 0-4.417969-3.578124-8-8-8h-56c-8.824218-.027343-15.972656-7.175781-16-16 0-8.835937 7.164063-16 16-16h88v-16h-88c-17.671874 0-32 14.328125-32 32h-.132812c-19.921875.488281-38.75 9.214844-52 24.09375-.066406-.085937-.144531-.148437-.210938-.246093-3.519531-6.257813-2.351562-14.105469 2.839844-19.0625l65.144532-65.074219c7.492187-7.488281 17.648437-11.699219 28.242187-11.710938h82.519531l54.488282 23.351563c.996093.429687 2.066406.648437 3.152343.648437h9.519531v64zm57.5625 24h-32v-112h32zm0 0"/><path d="m216.039062 136.019531h16c4.417969 0 8 3.582031 8 8h16c0-13.253906-10.746093-24-24-24v-8h-16v8c-13.253906 0-24 10.746094-24 24 0 13.253907 10.746094 24 24 24h16c4.417969 0 8 3.582031 8 8s-3.582031 8-8 8h-16c-4.417968 0-8-3.582031-8-8h-16c0 13.253907 10.746094 24 24 24v8h16v-8c13.253907 0 24-10.746093 24-24 0-13.253906-10.746093-24-24-24h-16c-4.417968 0-8-3.582031-8-8s3.582032-8 8-8zm0 0"/><path d="m398.152344 289.148438c-7.679688-3.617188-16.488282-4.007813-24.457032-1.082032l-49.871093 18.152344c-4.578125-8.902344-13.042969-15.160156-22.898438-16.917969l-108.726562-19.203125c-1.378907-.25-2.800781-.125-4.113281.363282l-52.253907 19.015624-2.738281-7.519531c-1.503906-4.15625-6.09375-6.308593-10.246094-4.800781l-60.144531 21.941406c-4.15625 1.503906-6.304687 6.09375-4.800781 10.25l-52.625 19.199219c-4.15625 1.503906-6.304688 6.09375-4.800782 10.25l38.355469 105.222656c1.148438 3.160157 4.148438 5.261719 7.511719 5.265625.929688.007813 1.859375-.148437 2.734375-.464844l52.625-19.199218c.722656 1.996094 2.207031 3.625 4.132813 4.523437 1.921874.902344 4.125 1 6.121093.273438l60.136719-21.894531c4.15625-1.503907 6.304688-6.09375 4.800781-10.25l-2.734375-7.519532 4.878906-1.773437 45.871094 15.496093c1.726563.574219 3.59375.550782 5.304688-.066406l22.542968-8.207031 142.839844-52c12.152344-4.433594 20.4375-15.746094 21-28.671875.5625-12.921875-6.710937-24.910156-18.429687-30.382812zm-301.921875 125.445312-45.105469 16.417969-32.832031-90.191407 45.105469-16.441406zm17.777343 2.050781-38.3125-105.25 45.144532-16.414062 38.3125 105.238281zm276.101563-83.464843-162.75 59.199218-45.871094-15.496094c-1.722656-.582031-3.589843-.558593-5.296875.0625l-7.519531 2.738282-27.363281-75.199219 50.234375-18.28125 106.609375 18.800781c5.667968.964844 10.371094 4.925782 12.285156 10.351563.285156.921875.511719 1.859375.679688 2.808593.359374 1.789063.382812 3.625.066406 5.421876-1.554688 8.703124-9.84375 14.519531-18.554688 13.015624l-90.09375-15.886718-2.777344 15.761718 90.074219 15.878907c17.433594 3.023437 34.023438-8.636719 37.085938-26.0625.207031-1.425781.320312-2.859375.335937-4.296875l51.914063-18.898438c8.304687-3.019531 17.488281 1.261719 20.511719 9.570313 3.019531 8.304687-1.261719 17.488281-9.570313 20.511719zm0 0"/></svg>