<svg id="Capa_1" enable-background="new 0 0 512 512" height="512" viewBox="0 0 512 512" width="512" xmlns="http://www.w3.org/2000/svg"><g><path d="m323.178 104.423h25.802c11.882 0 21.515 9.633 21.515 21.515v16.121c0 11.882-9.633 21.515-21.515 21.515h-25.802z" fill="#ffcebf"/><path d="m188.825 104.423h-25.801c-11.882 0-21.515 9.633-21.515 21.515v16.121c0 11.882 9.633 21.515 21.515 21.515h25.801z" fill="#ffcebf"/><path d="m421.554 350.969v90.673h-331.105v-90.673c0-18.151 11.552-34.294 28.735-40.173l72.882-24.936 5.961 3.078 8.988-3.078 3.82-6.363h90.354l3.161 4.633 10.131 3.459 5.487-1.719 72.862 24.926c17.183 5.879 28.724 22.022 28.724 40.173z" fill="#eaf6ff"/><path d="m192.04 296.434-41.975 14.362c-17.183 5.879-28.725 22.022-28.725 40.173v90.671h-30.886v-90.671c0-18.151 11.541-34.294 28.725-40.173l72.862-24.926.02-.01 4.659 3.758z" fill="#d8ecfe"/><path d="m301.183 239.139v40.358l-2.538 6.363-34.214 25.763-8.425 1.891-7.743-.288-36.991-27.853-.442-5.876v-40.358l.02-34.954h90.302z" fill="#ffcebf"/><path d="m271.45 301.89-1.198 5.359-5.799 4.365-8.447 1.9-7.743-.288-36.991-27.853-.442-5.876v-40.358l.02-34.954h30.887l-.021 34.954v40.358z" fill="#ffb09e"/><path d="m301.183 239.139v23.464c-11.922 5.652-25.234 8.803-39.267 8.803h-11.83c-14.033 0-27.345-3.15-39.257-8.792v-23.474l.02-34.953h90.302z" fill="#ffb09e"/><path d="m178.53 85.245v94.01c0 39.52 32.038 71.558 71.558 71.558h11.828c39.52 0 71.558-32.038 71.558-71.558v-94.01c0-12.103-9.811-21.914-21.914-21.914h-111.116c-12.103 0-21.914 9.811-21.914 21.914z" fill="#ffeee6"/><path d="m266.302 250.68c-1.452.093-2.914.134-4.386.134h-11.83c-39.514 0-71.554-32.04-71.554-71.554v-94.019c0-12.097 9.812-21.909 21.909-21.909h20.591c-12.097 0-21.909 9.812-21.909 21.909v94.019c0 38.042 29.703 69.165 67.179 71.42z" fill="#ffdfcf"/><g><path d="m222.662 151.599c-4.265 0-7.722-3.457-7.722-7.722v-10.135c0-4.265 3.457-7.722 7.722-7.722s7.722 3.457 7.722 7.722v10.135c0 4.264-3.457 7.722-7.722 7.722z" fill="#845c52"/></g><g><path d="m289.189 151.599c-4.265 0-7.722-3.457-7.722-7.722v-10.135c0-4.265 3.457-7.722 7.722-7.722s7.722 3.457 7.722 7.722v10.135c0 4.264-3.457 7.722-7.722 7.722z" fill="#845c52"/></g><g><path d="m256.001 212.951c-14.936 0-27.086-12.151-27.086-27.086 0-4.265 3.457-7.722 7.722-7.722s7.722 3.457 7.722 7.722c0 6.42 5.223 11.643 11.643 11.643s11.643-5.223 11.643-11.643c0-4.265 3.457-7.722 7.722-7.722s7.722 3.457 7.722 7.722c-.002 14.935-12.152 27.086-27.088 27.086z" fill="#ffb09e"/></g><g><path d="m151.8 387.117v54.525h-15.443v-54.525c0-4.262 3.449-7.722 7.722-7.722 4.261 0 7.721 3.46 7.721 7.722z" fill="#d8ecfe"/></g><g><path d="m370.169 387.117v54.525h-15.443v-54.525c0-4.262 3.449-7.722 7.722-7.722s7.721 3.46 7.721 7.722z" fill="#d8ecfe"/></g><path d="m271.992 361.485 15.99-28.436-2.978-9.537-16.367-9.997h-12.635l-7.739-.289-20.835 12.721-3.407 7.102 15.99 28.436h.001l-8.494 80.157h48.966l-8.493-80.157z" fill="#f25a74"/><path d="m272.508 315.879-3.871-2.364-12.631-.001-7.743-.288-20.835 12.721-3.41 7.098 15.989 28.436h-.005l-8.494 80.161h20.591l8.494-80.161h.005l-15.989-28.436z" fill="#e83d5a"/><path d="m353.174 104.423h-19.7v-10.831c0-3.669-1.618-7.151-4.423-9.516-13.755-11.602-33.888-11.54-47.571.147-13.651 11.659-33.726 11.752-47.484.22-13.834-11.656-33.926-12.526-48.047-.689-4.701 3.941-7.417 9.76-7.418 15.895l-.001 4.774h-17.238v-40.59c0-35.254 28.578-63.833 63.832-63.833h64.217c35.254 0 63.832 28.579 63.832 63.832v40.591z" fill="#365e7d"/><path d="m256.006.004c-35.252 0-63.832 28.57-63.832 63.832v15.711c-2.172 1.153-4.262 2.564-6.229 4.211-2.347 1.966-4.2 4.407-5.467 7.125-1.266 2.708-1.946 5.693-1.946 8.762v4.777h-17.245v-40.586c0-35.262 28.58-63.832 63.832-63.832h30.887z" fill="#2b4d66"/><path d="m210.825 279.494 45.177 34.017-52.996 32.379c-4.802 2.934-10.964-.522-10.964-6.15v-53.869z" fill="#9bd8f9"/><path d="m220.425 286.725-28.385 9.709v-10.564l.021-.01 18.769-6.363z" fill="#73c3f9"/><path d="m301.179 279.494-45.177 34.017 52.996 32.379c4.802 2.934 10.964-.522 10.964-6.15v-53.869z" fill="#9bd8f9"/><g><path d="m262.989 393.923 13.728 27.815c1.135 2.3 3.329 3.894 5.867 4.263l30.696 4.46c6.391.929 8.943 8.783 4.318 13.291l-22.212 21.651c-1.836 1.79-2.675 4.369-2.241 6.897l5.244 30.572c1.092 6.365-5.589 11.22-11.306 8.214l-27.456-14.434c-2.27-1.193-4.982-1.193-7.252 0l-27.456 14.434c-5.717 3.005-12.398-1.849-11.306-8.214l5.244-30.572c.434-2.528-.404-5.107-2.241-6.897l-22.212-21.651c-4.625-4.508-2.073-12.362 4.318-13.291l30.696-4.46c2.538-.369 4.732-1.963 5.867-4.263l13.728-27.815c2.859-5.791 11.117-5.791 13.976 0z" fill="#f9d264"/></g><g><path d="m271.445 411.054-5.271 10.687c-1.133 2.296-3.325 3.892-5.869 4.262l-30.691 4.458c-6.394.927-8.947 8.782-4.324 13.291l22.218 21.652c1.833 1.791 2.667 4.365 2.234 6.898l-4.849 28.282-19.973 10.502c-5.714 3.006-12.396-1.843-11.305-8.216l5.24-30.568c.433-2.533-.401-5.107-2.234-6.898l-22.218-21.652c-4.623-4.509-2.069-12.365 4.324-13.291l30.691-4.458c2.543-.371 4.736-1.966 5.869-4.262l13.724-27.819c2.862-5.786 11.119-5.786 13.981 0z" fill="#efc356"/></g><g><path d="m151.706 407.197 9.72 19.694c.804 1.628 2.357 2.757 4.154 3.018l21.734 3.158c4.525.658 6.332 6.219 3.058 9.41l-15.727 15.33c-1.3 1.267-1.894 3.094-1.587 4.883l3.713 21.646c.773 4.507-3.957 7.944-8.005 5.816l-19.439-10.22c-1.607-.845-3.527-.845-5.135 0l-19.439 10.22c-4.047 2.128-8.778-1.309-8.005-5.816l3.713-21.646c.307-1.79-.286-3.616-1.587-4.883l-15.727-15.33c-3.274-3.192-1.468-8.753 3.058-9.41l21.734-3.158c1.797-.261 3.35-1.39 4.154-3.018l9.72-19.694c2.022-4.101 7.869-4.101 9.893 0z" fill="#f9d264"/></g><g><path d="m157.061 418.034-4.376 8.854c-.803 1.627-2.358 2.759-4.159 3.017l-21.734 3.161c-4.52.659-6.332 6.219-3.058 9.41l15.732 15.33c1.297 1.266 1.894 3.099 1.585 4.88l-3.562 20.776-12.736 6.692c-4.046 2.121-8.782-1.308-8.01-5.817l3.717-21.652c.309-1.781-.288-3.614-1.585-4.88l-15.732-15.33c-3.274-3.192-1.462-8.751 3.058-9.41l21.734-3.161c1.802-.257 3.356-1.39 4.159-3.017l9.719-19.695c2.018-4.098 7.866-4.098 9.894 0z" fill="#efc356"/></g><g><path d="m61.137 407.197 9.72 19.694c.804 1.628 2.357 2.757 4.154 3.018l21.734 3.158c4.525.658 6.332 6.219 3.058 9.41l-15.727 15.33c-1.3 1.267-1.894 3.094-1.587 4.883l3.713 21.646c.773 4.507-3.957 7.944-8.005 5.816l-19.439-10.22c-1.607-.845-3.527-.845-5.135 0l-19.439 10.22c-4.047 2.128-8.778-1.309-8.005-5.816l3.713-21.646c.307-1.79-.286-3.616-1.587-4.883l-15.727-15.33c-3.274-3.192-1.468-8.753 3.058-9.41l21.734-3.158c1.797-.261 3.35-1.39 4.154-3.018l9.72-19.694c2.022-4.101 7.869-4.101 9.893 0z" fill="#f9d264"/></g><g><path d="m66.491 418.034-4.376 8.854c-.803 1.627-2.358 2.759-4.159 3.017l-21.734 3.161c-4.52.659-6.332 6.219-3.058 9.41l15.732 15.33c1.297 1.266 1.894 3.099 1.585 4.88l-3.562 20.776-12.735 6.692c-4.046 2.121-8.782-1.308-8.01-5.817l3.717-21.652c.309-1.781-.288-3.614-1.585-4.88l-15.732-15.33c-3.274-3.192-1.462-8.751 3.058-9.41l21.734-3.161c1.802-.257 3.356-1.39 4.159-3.017l9.719-19.695c2.018-4.098 7.866-4.098 9.894 0z" fill="#efc356"/></g><g><path d="m460.76 407.197 9.72 19.694c.804 1.628 2.357 2.757 4.154 3.018l21.734 3.158c4.525.658 6.332 6.219 3.058 9.41l-15.727 15.33c-1.3 1.267-1.894 3.094-1.587 4.883l3.713 21.646c.773 4.507-3.957 7.944-8.005 5.816l-19.439-10.22c-1.607-.845-3.527-.845-5.135 0l-19.439 10.22c-4.047 2.128-8.778-1.309-8.005-5.816l3.713-21.646c.307-1.79-.286-3.616-1.587-4.883l-15.727-15.33c-3.274-3.192-1.468-8.753 3.058-9.41l21.734-3.158c1.797-.261 3.35-1.39 4.154-3.018l9.72-19.694c2.022-4.101 7.87-4.101 9.893 0z" fill="#f9d264"/></g><g><path d="m460.76 407.197 9.72 19.694c.804 1.628 2.357 2.757 4.154 3.018l21.734 3.158c4.525.658 6.332 6.219 3.058 9.41l-15.727 15.33c-1.3 1.267-1.894 3.094-1.587 4.883l3.713 21.646c.773 4.507-3.957 7.944-8.005 5.816l-19.439-10.22c-1.607-.845-3.527-.845-5.135 0l-19.439 10.22c-4.047 2.128-8.778-1.309-8.005-5.816l3.713-21.646c.307-1.79-.286-3.616-1.587-4.883l-15.727-15.33c-3.274-3.192-1.468-8.753 3.058-9.41l21.734-3.158c1.797-.261 3.35-1.39 4.154-3.018l9.72-19.694c2.022-4.101 7.87-4.101 9.893 0z" fill="#f9d264"/></g><g><path d="m466.113 418.024v.01l-4.376 8.854c-.803 1.627-2.358 2.759-4.149 3.017l-21.734 3.161c-4.53.659-6.342 6.219-3.058 9.41l15.721 15.33c1.297 1.266 1.894 3.099 1.586 4.88l-3.552 20.766-12.746 6.702c-4.046 2.121-8.772-1.308-8-5.817l3.707-21.652c.309-1.781-.288-3.614-1.586-4.88l-15.721-15.33c-3.284-3.192-1.472-8.751 3.058-9.41l21.734-3.161c1.791-.257 3.346-1.39 4.149-3.017l9.719-19.695c2.028-4.098 7.876-4.098 9.894 0z" fill="#efc356"/></g><g><path d="m370.191 407.197 9.72 19.694c.804 1.628 2.357 2.757 4.154 3.018l21.734 3.158c4.525.658 6.332 6.219 3.058 9.41l-15.727 15.33c-1.3 1.267-1.894 3.094-1.587 4.883l3.713 21.646c.773 4.507-3.957 7.944-8.005 5.816l-19.439-10.22c-1.607-.845-3.527-.845-5.135 0l-19.439 10.22c-4.047 2.128-8.778-1.309-8.005-5.816l3.713-21.646c.307-1.79-.286-3.616-1.587-4.883l-15.727-15.33c-3.274-3.192-1.468-8.753 3.058-9.41l21.734-3.158c1.797-.261 3.35-1.39 4.154-3.018l9.72-19.694c2.023-4.101 7.87-4.101 9.893 0z" fill="#f9d264"/></g><g><path d="m375.543 418.034-4.376 8.854c-.803 1.627-2.358 2.759-4.149 3.017l-21.734 3.161c-4.53.659-6.332 6.219-3.058 9.41l15.721 15.33c1.297 1.266 1.894 3.099 1.586 4.88l-3.552 20.766-12.746 6.702c-4.046 2.121-8.772-1.308-8-5.817l3.706-21.652c.309-1.781-.288-3.614-1.586-4.88l-15.721-15.33c-3.274-3.192-1.472-8.751 3.058-9.41l21.734-3.161c1.791-.257 3.346-1.39 4.149-3.017l9.719-19.695c2.028-4.098 7.876-4.098 9.894 0z" fill="#efc356"/></g></g></svg>