<svg id="Capa_1" enable-background="new 0 0 512 512" height="512" viewBox="0 0 512 512" width="512" xmlns="http://www.w3.org/2000/svg"><g><g><g><g><path d="m7.426 382.979h497.362v122.022h-497.362z" fill="#9ce3bf"/></g><g><path d="m30.708 480.978v-97.999h-23.282v122.022h497.361v-24.023z" fill="#52cd8d"/></g><g><path d="m446.024 7.714h-369.574l30.018 59.776-30.018 60.413h369.574l-40.024-60.413z" fill="#d15573"/></g><g><path d="m430.836 104.979h-319.485l18.627-37.489-30.018-59.776h-23.51l30.018 59.776-30.018 60.413h369.574z" fill="#c21d44"/></g><g><circle cx="256" cy="256" fill="#f8e868" r="128.097"/></g><g><path d="m271.795 368.302c-70.746 0-128.097-57.351-128.097-128.097 0-31.352 11.27-60.067 29.97-82.332-27.977 23.498-45.766 58.733-45.766 98.127 0 70.746 57.351 128.097 128.097 128.097 39.395 0 74.629-17.789 98.127-45.766-22.263 18.702-50.979 29.971-82.331 29.971z" fill="#dec80e"/></g><g><circle cx="256" cy="256" fill="#c4e5f9" r="98.235"/></g><g><path d="m271.629 338.605c-54.253 0-98.235-43.981-98.235-98.235 0-23.145 8.009-44.416 21.4-61.205-22.566 17.999-37.03 45.726-37.03 76.835 0 54.254 43.981 98.235 98.235 98.235 31.109 0 58.835-14.464 76.834-37.03-16.787 13.391-38.059 21.4-61.204 21.4z" fill="#a4d7f5"/></g><g><path d="m255.987 290.694-43.625 22.935 8.331-48.577-35.293-34.403 48.774-7.087 21.813-44.198 21.813 44.198 48.774 7.087-35.293 34.403 8.331 48.577z" fill="#f8e868"/></g><g><path d="m299.613 313.629-4.428-25.817-39.198-20.607-16.667 8.762 3.055-17.809-31.952-31.145-25.024 3.636 35.294 34.403-8.331 48.577 43.625-22.935z" fill="#dec80e"/></g><g><path d="m240.37 240.998h15v15.001h-15z" fill="#fff"/></g><g><path d="m473.5 203.5h15v15h-15z" fill="#c4e5f9"/></g><g><path d="m473.5 293.5h15v15h-15z" fill="#c4e5f9"/></g><g><path d="m23.5 203.5h15v15h-15z" fill="#c4e5f9"/></g><g><path d="m23.5 293.5h15v15h-15z" fill="#c4e5f9"/></g></g></g><g><path d="m195.978 104.717v-74.958h-14.99v29.983h-30.011v-29.983h-14.989v74.958h14.989v-29.983h30.011v29.983z"/><path d="m375.799 104.717v-74.958h-14.989v29.983h-30.011v-29.983h-14.99v74.958h14.99v-29.983h30.011v29.983z"/><path d="m277.813 44.687h22.512v-14.991h-22.512c-20.698 0-37.538 16.841-37.538 37.543 0 10.041 3.913 19.478 11.019 26.571 7.09 7.078 16.503 10.972 26.517 10.972h.071l22.443-.041v-44.914h-29.893v14.992h14.884l.013 14.957-7.474.014c-.015 0-.029 0-.043 0-6.015 0-11.671-2.34-15.928-6.591-4.268-4.261-6.619-9.93-6.619-15.961-.001-12.435 10.114-22.551 22.548-22.551z"/><path d="m211.25 29.771h14.989v74.934h-14.989z"/><path d="m361.553 255.643c0-58.27-47.399-105.676-105.66-105.676-18.108 0-35.978 4.662-51.676 13.481l7.341 13.071c13.049-7.331 27.856-11.3 42.908-11.537l-25.36 51.39-58.538 8.507c5.573-15.5 15.348-29.343 28.602-39.987l-9.384-11.69c-25.137 20.186-39.552 50.235-39.552 82.441 0 58.27 47.399 105.676 105.66 105.676s105.659-47.407 105.659-105.676zm-159.933 72.6 54.261-29.457 53.856 29.773c-15.067 11.159-33.697 17.767-53.843 17.767-20.338.001-39.132-6.731-54.274-18.083zm108.665-.091-11.083-60.846 42.379-41.315c3.225 9.296 4.983 19.272 4.983 29.652 0 29.61-14.264 55.949-36.279 72.509zm30.903-103.274-58.533-8.507-25.361-51.395c38.597.588 71.42 25.413 83.894 59.902zm-102.128 5.196 16.821-34.087 16.82 34.087 37.611 5.466-27.216 26.533 8.425 39.465-35.64-19.688-35.641 19.688 8.425-39.465-27.216-26.533zm-73.837 25.569c0-10.253 1.707-20.251 4.951-29.658l42.385 41.321-11.936 60.171c-21.514-16.596-35.4-42.622-35.4-71.834z"/><path d="m210.925 405.612c-16.53 0-29.979 13.451-29.979 29.983v44.858h14.989v-14.938h29.979v14.938h14.989v-44.858c.001-16.532-13.447-29.983-29.978-29.983zm-14.989 44.911v-14.928c0-8.266 6.724-14.992 14.989-14.992 8.266 0 14.989 6.725 14.989 14.992v14.928z"/><path d="m458.251 480.438v-42.397l24.388-32.522h-18.737l-13.146 17.53-13.144-17.53-18.667.093 24.316 32.428v42.398z"/><path d="m106.026 405.559v44.858c0 16.533 13.449 29.983 29.979 29.983s29.979-13.451 29.979-29.983v-44.858h-14.989v44.858c0 8.266-6.724 14.992-14.989 14.992s-14.989-6.725-14.989-14.992v-44.858z"/><path d="m91.01 435.482c0-16.533-13.449-29.983-29.979-29.983s-29.979 13.45-29.979 29.983v15.092c0 16.533 13.449 29.983 29.979 29.983 6.429 0 12.387-2.042 17.274-5.501l6.502 6.503 10.6-10.6-7.371-7.372c1.905-3.938 2.974-8.353 2.974-13.013zm-44.968 15.092v-15.092c0-8.266 6.724-14.991 14.989-14.991s14.989 6.725 14.989 14.991v15.092c0 8.266-6.724 14.992-14.989 14.992s-14.989-6.725-14.989-14.992z"/><path d="m383.305 480.544v-60.033h22.484v-14.992h-59.958v14.992h22.484v60.033z"/><path d="m316.372 405.561h14.989v74.935h-14.989z"/><path d="m256.159 405.559v74.841h44.703v-14.992h-29.714v-59.849z"/><path d="m248.493 497.008h14.883v14.992h-14.883z"/><path d="m319.916 375.055c42.515-22.892 71.48-67.831 71.48-119.412 0-52.433-29.929-98.004-73.596-120.53h141.94l-44.948-67.853 45.03-67.26h-54.034v14.992h25.958l-34.963 52.225 35.045 52.905h-343.265l26.281-52.901-26.223-52.229h302.177v-14.992h-326.478l33.769 67.256-33.712 67.857h129.61c-43.667 22.526-73.596 68.097-73.596 120.53 0 51.581 28.965 96.519 71.48 119.412h-191.871v136.945h233.397v-14.992h-218.408v-106.962h482.021v106.962h-218.645v14.992h233.635v-136.945zm-184.535-119.412c0-68.043 56.667-123.098 125.28-120.437 63.956 2.48 115.175 55.353 115.74 119.354 1.613 65.897-54.914 121.459-120.238 120.494-65.092 1.342-121.767-53.564-120.782-119.411z"/><path d="m443.261 278.13v-14.991h14.99v-14.992h-14.99v-14.992h-14.989v14.992h-14.989v14.992h14.989v14.991z"/><path d="m68.526 278.13h14.989v-14.991h14.99v-14.992h-14.99v-14.992h-14.989v14.992h-14.99v14.992h14.99z"/></g></g></svg>