<?xml version="1.0" encoding="utf-8"?>
<svg id="master-artboard" viewBox="0 0 2272 1872" enable-background="new 0 0 2272 1872" x="0px" width="2272px" version="1.1" xmlns="http://www.w3.org/2000/svg" y="0px" height="1872px">
<g transform="matrix(1, 0, 0, 1, 0, -5.684341886080802e-14)">
		
			<path fill="#69D2E7" stroke="#4D91BB" stroke-width="12" stroke-linecap="round" stroke-linejoin="round" stroke-miterlimit="10" d="&#10;&#9;&#9;&#9;M1643.9,1016.4h-25.7c-7.1,0-12.8,5.8-12.8,12.8v54h51.4v-54C1656.7,1022.1,1651,1016.4,1643.9,1016.4z"/>
		
			<path fill="#69D2E7" stroke="#4D91BB" stroke-width="12" stroke-linecap="round" stroke-linejoin="round" stroke-miterlimit="10" d="&#10;&#9;&#9;&#9;M1654.2,1063.4h-46.3c-6.7,0-12.1,5.4-12.1,12.1v35.7h70.4v-35.7C1666.2,1068.8,1660.8,1063.4,1654.2,1063.4z"/>
		
			<path fill="#A5E4F1" stroke="#4D91BB" stroke-width="12" stroke-linecap="round" stroke-linejoin="round" stroke-miterlimit="10" d="&#10;&#9;&#9;&#9;M1825.9,1458.1h-220.6c-13.5,0-24.4-10.9-24.4-24.4v-315.1c0-13.5,10.9-24.4,24.4-24.4h24.1c122,0,220.9,98.9,220.9,220.9v118.5&#10;&#9;&#9;&#9;C1850.3,1447.2,1839.4,1458.1,1825.9,1458.1z M1760.5,1184.1c-18.9-18.9-41.2-33.2-65.4-42.4c-11.5-4.3-22.7,6.9-18.3,18.3&#10;&#9;&#9;&#9;c9.2,24.3,23.5,46.5,42.4,65.4c18.9,18.9,41.2,33.2,65.4,42.4c11.5,4.3,22.7-6.9,18.3-18.3&#10;&#9;&#9;&#9;C1793.7,1225.2,1779.4,1203,1760.5,1184.1z"/>
		
			<path fill="#69D2E7" stroke="#4D91BB" stroke-width="12" stroke-linecap="round" stroke-linejoin="round" stroke-miterlimit="10" d="&#10;&#9;&#9;&#9;M1617.6,1263.4v140.3c0,12.3,9.9,22.2,22.2,22.2h140.3c19.8,0,29.7-23.9,15.7-37.9l-140.3-140.3&#10;&#9;&#9;&#9;C1641.5,1233.7,1617.6,1243.6,1617.6,1263.4z"/>
	</g><path d="M 1336.0999755859375 595.5999755859375 L 1043.5 595.5999755859375 L 1193.4000244140625 510.29998779296875 Z" fill="none" stroke="#4D91BB" stroke-width="12" stroke-linecap="round" stroke-linejoin="round" stroke-miterlimit="10" transform="matrix(1, 0, 0, 1, 0, -5.684341886080802e-14)"/><path fill="#FFFFFF" stroke="#4D91BB" stroke-width="12" stroke-linecap="round" stroke-linejoin="round" stroke-miterlimit="10" d="&#10;&#9;&#9;&#9;&#9;M1322.8,936h-259c-7.3,0-13.3-6-13.3-13.3V567.2l95.5-37.5c30.4,11.9,64.2,11.9,94.6,0l95.5,37.5v355.4&#10;&#9;&#9;&#9;&#9;C1336.1,930,1330.2,936,1322.8,936z" transform="matrix(1, 0, 0, 1, 0, -5.684341886080802e-14)"/><path d="M 1427.5999755859375 720.7000122070312 L 1336.0999755859375 674.5 L 1336.0999755859375 567.2000122070312 L 1466.699951171875 633.2000122070312 Z" fill="#C3EDF5" stroke="#4D91BB" stroke-width="12" stroke-linecap="round" stroke-linejoin="round" stroke-miterlimit="10" transform="matrix(1, 0, 0, 1, 0, -5.684341886080802e-14)"/><path d="M 959.0999755859375 720.7000122070312 L 1050.5999755859375 674.5 L 1050.5999755859375 567.2000122070312 L 920 633.2000122070312 Z" fill="#C3EDF5" stroke="#4D91BB" stroke-width="12" stroke-linecap="round" stroke-linejoin="round" stroke-miterlimit="10" transform="matrix(1, 0, 0, 1, 0, -5.684341886080802e-14)"/><path fill="#C3EDF5" stroke="#4D91BB" stroke-width="12" stroke-linecap="round" stroke-linejoin="round" stroke-miterlimit="10" d="&#10;&#9;&#9;&#9;&#9;M1193.4,567.2c29.7,0,56.3-10.6,73.6-27.1l-16.5-6.5c-36.7,14.4-77.6,14.4-114.3,0l-16.5,6.5&#10;&#9;&#9;&#9;&#9;C1137.1,556.7,1163.6,567.2,1193.4,567.2z" transform="matrix(1, 0, 0, 1, 0, -5.684341886080802e-14)"/><path d="M 1402.699951171875 708.0999755859375 L 1427.5999755859375 720.7000122070312 L 1466.699951171875 633.2000122070312 L 1442 620.7000122070312 Z" fill="#FFFFFF" stroke="#4D91BB" stroke-width="12" stroke-linecap="round" stroke-linejoin="round" stroke-miterlimit="10" transform="matrix(1, 0, 0, 1, 0, -5.684341886080802e-14)"/><path d="M 984 708.0999755859375 L 959.0999755859375 720.7000122070312 L 920 633.2000122070312 L 944.7000122070312 620.7000122070312 Z" fill="#FFFFFF" stroke="#4D91BB" stroke-width="12" stroke-linecap="round" stroke-linejoin="round" stroke-miterlimit="10" transform="matrix(1, 0, 0, 1, 0, -5.684341886080802e-14)"/><path fill="none" stroke="#4D91BB" stroke-width="12" stroke-linecap="round" stroke-linejoin="round" stroke-miterlimit="10" d="&#10;&#9;&#9;&#9;M1157.2,450c0-20,16.2-36.1,36.1-36.1s36.1,16.2,36.1,36.1s-16.2,36.1-36.1,36.1v24.2" transform="matrix(1, 0, 0, 1, 0, -5.684341886080802e-14)"/><g transform="matrix(1, 0, 0, 1, 0, -5.684341886080802e-14)">
			
				<path d="M 485.79998779296875 504.5 L 485.79998779296875 552.0999755859375 L 514.5 876.7999877929688 L 616.9000244140625 876.7999877929688 L 633.0999755859375 645.4000244140625 L 649.2000122070312 876.7999877929688 L 751.5999755859375 876.7999877929688 L 780.2999877929688 552.0999755859375 L 780.2999877929688 504.5 Z" fill="#7AACCC" stroke="#4D91BB" stroke-width="12" stroke-linecap="round" stroke-linejoin="round" stroke-miterlimit="10"/>
			
				<path fill="none" stroke="#4D91BB" stroke-width="12" stroke-linecap="round" stroke-linejoin="round" stroke-miterlimit="10" d="&#10;&#9;&#9;&#9;&#9;M633.1,504.5v140.9c0,0,31.3-24.5,31.3-140.9"/>
			
				<path d="M 485.799988 542.099976 L 780.299988 542.099976" fill="none" stroke="#4D91BB" stroke-width="12" stroke-linecap="round" stroke-linejoin="round" stroke-miterlimit="10"/>
			
				<path fill="none" stroke="#4D91BB" stroke-width="12" stroke-linecap="round" stroke-linejoin="round" stroke-miterlimit="10" d="&#10;&#9;&#9;&#9;&#9;M773.7,626.8c-50.6-27.2-62.5-84.7-62.5-84.7v-37.5"/>
			
				<path fill="none" stroke="#4D91BB" stroke-width="12" stroke-linecap="round" stroke-linejoin="round" stroke-miterlimit="10" d="&#10;&#9;&#9;&#9;&#9;M492.4,626.8c46.6,0,57.7-84.7,57.7-84.7v-37.5"/>
		</g><path fill="#FFFFFF" stroke="#4D91BB" stroke-width="12" stroke-linecap="round" stroke-linejoin="round" stroke-miterlimit="10" d="&#10;&#9;&#9;&#9;M580.4,727.8c-19.2,0-35.6,12.1-42,29c-6.7-6.4-15.9-10.3-25.9-10.3c-17.1,0-31.5,11.4-36.1,27c-2.2-0.7-4.6-1.1-7.1-1.1&#10;&#9;&#9;&#9;c-13.4,0-24.3,10.9-24.3,24.3c0,13.4,10.9,24.3,24.3,24.3c7.4,0,14-3.3,18.5-8.5c6.6,5.8,15.3,9.3,24.7,9.3&#10;&#9;&#9;&#9;c14.5,0,27.1-8.2,33.4-20.3c8.2,9.9,20.7,16.2,34.6,16.2c24.8,0,44.9-20.1,44.9-44.9C625.3,747.9,605.2,727.8,580.4,727.8z" transform="matrix(1, 0, 0, 1, 0, -5.684341886080802e-14)"/><path fill="#FFFFFF" stroke="#4D91BB" stroke-width="12" stroke-linecap="round" stroke-linejoin="round" stroke-miterlimit="10" d="&#10;&#9;&#9;&#9;M799.7,772.7c-2.9,0-5.7,0.5-8.3,1.4c-5.7-11.8-17.8-19.9-31.7-19.9c-3.5,0-6.8,0.5-9.9,1.4c-7.1-20.3-26.4-34.9-49.1-34.9&#10;&#9;&#9;&#9;c-27,0-49.1,20.5-51.7,46.8c-5.6-3.9-12.5-6.1-19.8-6.1c-19.5,0-35.2,15.8-35.2,35.2c0,19.5,15.8,35.2,35.2,35.2&#10;&#9;&#9;&#9;c15.5,0,28.7-10,33.4-24c9.5,10.3,23.1,16.7,38.2,16.7c12.4,0,23.9-4.4,32.8-11.7c6.4,7.2,15.8,11.7,26.2,11.7&#10;&#9;&#9;&#9;c8.2,0,15.7-2.8,21.7-7.5c4.7,4.6,11.1,7.5,18.3,7.5c14.3,0,26-11.6,26-26S814,772.7,799.7,772.7z" transform="matrix(1, 0, 0, 1, 0, -5.684341886080802e-14)"/><path fill="#E88F8D" stroke="#4D91BB" stroke-width="12" stroke-linecap="round" stroke-linejoin="round" stroke-miterlimit="10" d="&#10;&#9;&#9;&#9;&#9;M819.4,846.7H446.7c-13.8,0-25-11.2-25-25v0c0-13.8,11.2-25,25-25h372.6c13.8,0,25,11.2,25,25v0&#10;&#9;&#9;&#9;&#9;C844.4,835.5,833.2,846.7,819.4,846.7z" transform="matrix(1, 0, 0, 1, 0, -5.684341886080802e-14)"/><path fill="#DD6966" stroke="#4D91BB" stroke-width="12" stroke-linecap="round" stroke-linejoin="round" stroke-miterlimit="10" d="&#10;&#9;&#9;&#9;&#9;M526.1,962.4H740c21.2,0,40.3-13.1,47.8-33l31.5-82.7H446.7l31.5,82.7C485.8,949.2,504.9,962.4,526.1,962.4z" transform="matrix(1, 0, 0, 1, 0, -5.684341886080802e-14)"/><path fill="#E8BC91" stroke="#4D91BB" stroke-width="12" stroke-linecap="round" stroke-linejoin="round" stroke-miterlimit="10" d="&#10;&#9;&#9;&#9;M946.6,1276.7h-91.4c-4.4,0-8.1-3.6-8.1-8.1l0,0c0-4.4,3.6-8.1,8.1-8.1h91.4c4.4,0,8.1,3.6,8.1,8.1l0,0&#10;&#9;&#9;&#9;C954.6,1273.1,951,1276.7,946.6,1276.7z" transform="matrix(1, 0, 0, 1, 0, -5.684341886080802e-14)"/><path fill="#E8BC91" stroke="#4D91BB" stroke-width="12" stroke-linecap="round" stroke-linejoin="round" stroke-miterlimit="10" d="&#10;&#9;&#9;&#9;&#9;M770.6,1455.6l-254.2-172.4c-6.7-4.5-8.4-13.6-3.9-20.3l0,0c4.5-6.7,13.6-8.4,20.3-3.9L787,1431.5c6.7,4.5,8.4,13.6,3.9,20.3h0&#10;&#9;&#9;&#9;&#9;C786.3,1458.4,777.3,1460.1,770.6,1455.6z" transform="matrix(1, 0, 0, 1, 0, -5.684341886080802e-14)"/><path fill="#E8BC91" stroke="#4D91BB" stroke-width="12" stroke-linecap="round" stroke-linejoin="round" stroke-miterlimit="10" d="&#10;&#9;&#9;&#9;&#9;M532.8,1455.6L787,1283.2c6.7-4.5,8.4-13.6,3.9-20.3h0c-4.5-6.7-13.6-8.4-20.3-3.9l-254.2,172.4c-6.7,4.5-8.4,13.6-3.9,20.3l0,0&#10;&#9;&#9;&#9;&#9;C517.1,1458.4,526.1,1460.1,532.8,1455.6z" transform="matrix(1, 0, 0, 1, 0, -5.684341886080802e-14)"/><path fill="#FFE7A3" stroke="#4D91BB" stroke-width="12" stroke-linecap="round" stroke-linejoin="round" stroke-miterlimit="10" d="&#10;&#9;&#9;&#9;&#9;M860.3,1287.8H443c-11.8,0-21.3-9.5-21.3-21.3l0,0c0-11.8,9.5-21.3,21.3-21.3h417.3c11.8,0,21.3,9.5,21.3,21.3l0,0&#10;&#9;&#9;&#9;&#9;C881.6,1278.2,872.1,1287.8,860.3,1287.8z" transform="matrix(1, 0, 0, 1, 0, -5.684341886080802e-14)"/><path fill="#C3EDF5" stroke="#4D91BB" stroke-width="12" stroke-linecap="round" stroke-linejoin="round" stroke-miterlimit="10" d="&#10;&#9;&#9;&#9;M573,1216.6H471.7c-7.9,0-14.3,6.4-14.3,14.3l0,0c0,7.9,6.4,14.3,14.3,14.3H573c7.9,0,14.3-6.4,14.3-14.3l0,0&#10;&#9;&#9;&#9;C587.3,1223,580.9,1216.6,573,1216.6z" transform="matrix(1, 0, 0, 1, 0, -5.684341886080802e-14)"/><path fill="#DD6966" stroke="#4D91BB" stroke-width="12" stroke-linecap="round" stroke-linejoin="round" stroke-miterlimit="10" d="&#10;&#9;&#9;&#9;M573,1130.8H471.7c-7.9,0-14.3,6.4-14.3,14.3l0,0c0,7.9,6.4,14.3,14.3,14.3H573c7.9,0,14.3-6.4,14.3-14.3l0,0&#10;&#9;&#9;&#9;C587.3,1137.2,580.9,1130.8,573,1130.8z" transform="matrix(1, 0, 0, 1, 0, -5.684341886080802e-14)"/><path fill="#69D2E7" stroke="#4D91BB" stroke-width="12" stroke-linecap="round" stroke-linejoin="round" stroke-miterlimit="10" d="&#10;&#9;&#9;&#9;M573,1188H471.7c-7.9,0-14.3,6.4-14.3,14.3l0,0c0,7.9,6.4,14.3,14.3,14.3H573c7.9,0,14.3-6.4,14.3-14.3l0,0&#10;&#9;&#9;&#9;C587.3,1194.4,580.9,1188,573,1188z" transform="matrix(1, 0, 0, 1, 0, -5.684341886080802e-14)"/><path fill="#7AACCC" stroke="#4D91BB" stroke-width="12" stroke-linecap="round" stroke-linejoin="round" stroke-miterlimit="10" d="&#10;&#9;&#9;&#9;M573,1159.4H471.7c-7.9,0-14.3,6.4-14.3,14.3l0,0c0,7.9,6.4,14.3,14.3,14.3H573c7.9,0,14.3-6.4,14.3-14.3l0,0&#10;&#9;&#9;&#9;C587.3,1165.8,580.9,1159.4,573,1159.4z" transform="matrix(1, 0, 0, 1, 0, -5.684341886080802e-14)"/><path fill="none" stroke="#4D91BB" stroke-width="12" stroke-linecap="round" stroke-linejoin="round" stroke-miterlimit="10" d="&#10;&#9;&#9;&#9;M1644.9,857.3H1594c-18.4,0-33.3,14.9-33.3,33.3v0c0,18.4,14.9,33.3,33.3,33.3h175.5" transform="matrix(1, 0, 0, 1, 0, -5.684341886080802e-14)"/><path d="M 1673 816.799988 H 1697.799999 V 897.799988 H 1673 V 816.799988 Z" transform="matrix(-4.467555839160475e-11, 1, -1, -4.467555839160475e-11, 2542.723876953125, -828.1221923828125)" fill="#666666" stroke="#4D91BB" stroke-width="12" stroke-linecap="round" stroke-linejoin="round" stroke-miterlimit="10"/><path fill="#666666" stroke="#4D91BB" stroke-width="12" stroke-linecap="round" stroke-linejoin="round" stroke-miterlimit="10" d="&#10;&#9;&#9;&#9;M1715.9,793.7v-37.2c0-10.4,8.4-18.8,18.8-18.8h1.3v74.7h-1.3C1724.3,812.5,1715.9,804.1,1715.9,793.7z" transform="matrix(1, 0, 0, 1, 0, -5.684341886080802e-14)"/><path fill="#DD6966" stroke="#4D91BB" stroke-width="12" stroke-linecap="round" stroke-linejoin="round" stroke-miterlimit="10" d="&#10;&#9;&#9;&#9;M1723.6,878.2h109.5c9.5,0,17.2-7.7,17.2-17.2V546.8c0-9.5-7.7-17.2-17.2-17.2h-17c-86,0-155.7,69.7-155.7,155.7V815&#10;&#9;&#9;&#9;C1660.4,849.9,1688.7,878.2,1723.6,878.2z M1710.5,835.5c-13.3,0-24-10.8-24-24v-88.3c0-2.3,0.1-4.5,0.2-6.7&#10;&#9;&#9;&#9;c1.4-31.1,47.9-29.8,47.9,1.3v93.8C1734.5,824.8,1723.7,835.5,1710.5,835.5L1710.5,835.5z" transform="matrix(1, 0, 0, 1, 0, -5.684341886080802e-14)"/><path fill="#E6E6E6" stroke="#4D91BB" stroke-width="12" stroke-linecap="round" stroke-linejoin="round" stroke-miterlimit="10" d="&#10;&#9;&#9;&#9;M1823.1,881.1v-363c0-7.5,6.1-13.6,13.6-13.6l0,0c7.5,0,13.6,6.1,13.6,13.6v363c0,7.5-6.1,13.6-13.6,13.6l0,0&#10;&#9;&#9;&#9;C1829.2,894.6,1823.1,888.6,1823.1,881.1z" transform="matrix(1, 0, 0, 1, 0, -5.684341886080802e-14)"/><path fill="#FCA566" stroke="#4D91BB" stroke-width="12" stroke-linecap="round" stroke-linejoin="round" stroke-miterlimit="10" d="&#10;&#9;&#9;&#9;M1783.7,533v345.2h-28.4V542C1764.4,538.1,1773.9,535.1,1783.7,533z" transform="matrix(1, 0, 0, 1, 0, -5.684341886080802e-14)"/><path fill="#FFFFFF" stroke="#4D91BB" stroke-width="12" stroke-linecap="round" stroke-linejoin="round" stroke-miterlimit="10" d="&#10;&#9;&#9;&#9;M1421.8,1458.1h-300.6c-19.6,0-35.5-15.9-35.5-35.5v-370.8c0-19.6,15.9-35.5,35.5-35.5h300.6c19.6,0,35.5,15.9,35.5,35.5v370.8&#10;&#9;&#9;&#9;C1457.3,1442.2,1441.4,1458.1,1421.8,1458.1z" transform="matrix(1, 0, 0, 1, 0, -5.684341886080802e-14)"/><path fill="#7AACCC" stroke="#4D91BB" stroke-width="12" stroke-linecap="round" stroke-linejoin="round" stroke-miterlimit="10" d="&#10;&#9;&#9;&#9;M1085.7,1381.4v41.2c0,19.6,15.9,35.5,35.5,35.5h300.6c19.6,0,35.5-15.9,35.5-35.5v-41.2H1085.7z" transform="matrix(1, 0, 0, 1, 0, -5.684341886080802e-14)"/><path d="M 1373.099998 1248.5 A 101.599998 101.599998 0 0 1 1271.5 1350.099998 A 101.599998 101.599998 0 0 1 1169.900002 1248.5 A 101.599998 101.599998 0 0 1 1271.5 1146.900002 A 101.599998 101.599998 0 0 1 1373.099998 1248.5 Z" fill="#7AACCC" stroke="#4D91BB" stroke-width="12" stroke-linecap="round" stroke-linejoin="round" stroke-miterlimit="10" transform="matrix(1, 0, 0, 1, 0, -5.684341886080802e-14)"/><path d="M 1351.099998 1248.5 A 79.599998 79.599998 0 0 1 1271.5 1328.099998 A 79.599998 79.599998 0 0 1 1191.900002 1248.5 A 79.599998 79.599998 0 0 1 1271.5 1168.900002 A 79.599998 79.599998 0 0 1 1351.099998 1248.5 Z" fill="#A5E4F1" stroke="#4D91BB" stroke-width="12" stroke-linecap="round" stroke-linejoin="round" stroke-miterlimit="10" transform="matrix(1, 0, 0, 1, 0, -5.684341886080802e-14)"/><path d="M 1085.699951 1083.5 H 1457.299957 V 1109.799999 H 1085.699951 V 1083.5 Z" fill="#A5E4F1" stroke="#4D91BB" stroke-width="12" stroke-linecap="round" stroke-linejoin="round" stroke-miterlimit="10" transform="matrix(1, 0, 0, 1, 0, -5.684341886080802e-14)"/><path fill="#A5E4F1" stroke="#4D91BB" stroke-width="12" stroke-linecap="round" stroke-linejoin="round" stroke-miterlimit="10" d="&#10;&#9;&#9;&#9;M1202.9,1061.9h-50.6c-6.3,0-11.5-5.1-11.5-11.5l0,0c0-6.3,5.1-11.5,11.5-11.5h50.6c6.3,0,11.5,5.1,11.5,11.5l0,0&#10;&#9;&#9;&#9;C1214.4,1056.7,1209.2,1061.9,1202.9,1061.9z" transform="matrix(1, 0, 0, 1, 0, -5.684341886080802e-14)"/><path d="M 1297.5 1050.400024 A 13 13 0 0 1 1284.5 1063.400024 A 13 13 0 0 1 1271.5 1050.400024 A 13 13 0 0 1 1284.5 1037.400024 A 13 13 0 0 1 1297.5 1050.400024 Z" fill="#A5E4F1" stroke="#4D91BB" stroke-width="12" stroke-linecap="round" stroke-linejoin="round" stroke-miterlimit="10" transform="matrix(1, 0, 0, 1, 0, -5.684341886080802e-14)"/><path d="M 1345.5 1050.400024 A 13 13 0 0 1 1332.5 1063.400024 A 13 13 0 0 1 1319.5 1050.400024 A 13 13 0 0 1 1332.5 1037.400024 A 13 13 0 0 1 1345.5 1050.400024 Z" fill="#A5E4F1" stroke="#4D91BB" stroke-width="12" stroke-linecap="round" stroke-linejoin="round" stroke-miterlimit="10" transform="matrix(1, 0, 0, 1, 0, -5.684341886080802e-14)"/><path d="M 1393.400024 1050.400024 A 13 13 0 0 1 1380.400024 1063.400024 A 13 13 0 0 1 1367.400024 1050.400024 A 13 13 0 0 1 1380.400024 1037.400024 A 13 13 0 0 1 1393.400024 1050.400024 Z" fill="#A5E4F1" stroke="#4D91BB" stroke-width="12" stroke-linecap="round" stroke-linejoin="round" stroke-miterlimit="10" transform="matrix(1, 0, 0, 1, 0, -5.684341886080802e-14)"/><path fill="#A5E4F1" stroke="#4D91BB" stroke-width="12" stroke-linecap="round" stroke-linejoin="round" stroke-miterlimit="10" d="&#10;&#9;&#9;&#9;M1197,1259h-38.5c-5.8,0-10.5-4.7-10.5-10.5l0,0c0-5.8,4.7-10.5,10.5-10.5h38.5c5.8,0,10.5,4.7,10.5,10.5l0,0&#10;&#9;&#9;&#9;C1207.5,1254.3,1202.8,1259,1197,1259z" transform="matrix(1, 0, 0, 1, 0, -5.684341886080802e-14)"/><path fill="#FFFFFF" stroke="#4D91BB" stroke-width="12" stroke-linecap="round" stroke-linejoin="round" stroke-miterlimit="10" d="&#10;&#9;&#9;&#9;&#9;M1317.3,1183.4l-74.1,139.5c8.8,3.4,18.4,5.2,28.4,5.2c2.2,0,4.4-0.1,6.6-0.3l62.8-118.2&#10;&#9;&#9;&#9;&#9;C1335.1,1199.2,1327,1190.2,1317.3,1183.4z" transform="matrix(1, 0, 0, 1, 0, -5.684341886080802e-14)"/><path fill="#FFFFFF" stroke="#4D91BB" stroke-width="12" stroke-linecap="round" stroke-linejoin="round" stroke-miterlimit="10" d="&#10;&#9;&#9;&#9;&#9;M1280,1169.4l-69.3,130.4c4.4,5.2,9.5,9.9,15,13.8l74.1-139.4C1293.6,1171.7,1286.9,1170.1,1280,1169.4z" transform="matrix(1, 0, 0, 1, 0, -5.684341886080802e-14)"/>
</svg>